<?xml version="1.0" encoding="UTF-8"?>
<svg id="Calque_1" xmlns="http://www.w3.org/2000/svg" version="1.1" viewBox="0 0 910.56 439">
  <!-- Generator: Adobe Illustrator 30.1.0, SVG Export Plug-In . SVG Version: 2.1.1 Build 136)  -->
  <path d="M404.3,287.06c-10.66,4.81-69.29,30.88-75.46,28.74-6.58-2.28-10.18-8.26-14.29-13.93-3.67.95-7.78,2.04-11.52,3.56-30.16,12.29-60.68,19.92-92.9,25.19-41.14,6.73-81.09,15.07-121.46,25.04-8.74,2.16-15.12,6.83-17.84,15.71-2.07,6.73-2.87,14.37-2.71,21.63.49,22.2,21.13,25.87,17.19,38.07-2.75,8.52-31.86,11.36-48.28,2.57-11.28-6.04-17.79-17.68-21.32-29.72-7.13-24.28-12.28-48.25-15.53-73.37-.78-6,.91-13.86,5.43-17.5,5.78-4.64,12.81-7.13,19.79-9.35l51.78-16.5c32.68-10.41,63.14-24.66,94.4-38.5,30.33-13.43,45.98-7.7,66.95-13.18,13.49-3.52,25.57-9.52,36.96-17.46,5.35-3.73,2.35-14.38,12.5-19.27,17.43-8.41,34.31-16.86,51.16-26.39,12.2-6.9,21.58-15.45,30.26-26.44,15.07-19.08,36.56-31.35,61.23-32.82,18.5-1.11,36.31-2.12,54.37-7.05,22.7-6.2,44.37-13.27,66.08-22.21l40.25-16.58c25.91-10.67,47.03-17.71,75.84-15.08,31.98,2.92,56.12,27.05,59.09,59.44,1.79,19.52-3,38.62-8.88,57.45-2.56,8.2-2.47,16.9-3.57,25.42-2.63,20.37-5.52,39.94-10.59,59.79-1.44,5.65-1.94,11.21-1.83,16.93l.85,42.56.97,31.65.99,25.96,1.13,31.25,32.23,10.77c6.5,2.17,12.56,4.52,18.96,7.14,4.6,1.89,6.69,8.68,3.58,12.69-24.68,2.28-48.9,1.84-73.62,1.09-13.52-.41-29.65-.5-32.75-19.56l-7.92-48.61-9.3-51.95c-3.6-20.13-5.44-65.9-4.39-86.59l1.55-30.52c.41-7.99,1.67-15.84.54-23.69l-2.83-19.59-21.8,65.14c-1.71,5.11-62.14,17.58-71.03,19.43-42.99,8.94-45.3,8.57-85.54,26.71l-48.73,21.97Z" fill="#fff"/>
  <ellipse cx="829.21" cy="81.31" rx="81.35" ry="81.31" fill="#fff"/>
</svg>